<svg xmlns="http://www.w3.org/2000/svg" role="img" viewBox="0 0 256 256" width="32" height="32" aria-labelledby="title desc">
  <title id="title">Amharic Imposter Icon</title>
  <desc id="desc">Stylised mask and Amharic letter icon for the Amharic Imposter game.</desc>
  <defs>
    <radialGradient id="bg" cx="50%" cy="45%" r="70%">
      <stop offset="0%" stop-color="#34d399" />
      <stop offset="100%" stop-color="#0f172a" />
    </radialGradient>
    <linearGradient id="maskGlow" x1="40%" x2="60%" y1="30%" y2="80%">
      <stop offset="0%" stop-color="#f97316" />
      <stop offset="100%" stop-color="#fbbf24" />
    </linearGradient>
  </defs>
  <rect width="256" height="256" rx="48" fill="url(#bg)" />
  <path
    d="M128 62c-40 0-66 26-66 60 0 24 14 46 36 55l14 6 16 33a6 6 0 0 0 11 0l16-33 14-6c22-9 36-31 36-55 0-34-26-60-66-60Zm0 32c21 0 32 14 32 28 0 18-12 26-32 26s-32-8-32-26c0-14 11-28 32-28Z"
    fill="url(#maskGlow)"
    opacity="0.95"
  />
  <path
    d="M128 108c-18 0-28 10-28 21 0 15 11 23 28 23s28-8 28-23c0-11-10-21-28-21Zm-44 70c-3 0-4 4-2 6 16 18 36 27 60 27s44-9 60-27c2-2 0-6-2-6-21 0-35 12-58 12s-37-12-58-12Z"
    fill="#fff"
    opacity="0.85"
  />
  <text
    x="50%"
    y="214"
    text-anchor="middle"
    font-family="'Noto Sans Ethiopic','Segoe UI',sans-serif"
    font-size="42"
    fill="#f8fafc"
  >
    ኢ
  </text>
</svg>